<svg data-name="Layer 1" xmlns="http://www.w3.org/2000/svg" viewBox="0 0 870.1306 231.42328" xmlns:xlink="http://www.w3.org/1999/xlink"><path d="M983.46239,427.0254a184.13747,184.13747,0,0,0,23.699,82.7421,197.452,197.452,0,0,1,6.87055-114.573l1.94827-2.57c-7.56323-6.71314-20.46738-2.91693-26.38807,5.28165C983.67143,406.10421,983.03831,416.92164,983.46239,427.0254Z" transform="translate(-164.9347 -334.28836)" fill="#a076f1"/><path d="M674.87281,499.32131c-3.40068,8.58869-12.50927,15.67957-21.4951,13.53807-5.73147-1.36578-10.05435-6.01188-13.57984-10.73294a100.5765,100.5765,0,0,1-17.857-39.813A87.02089,87.02089,0,0,0,603.863,516.43886c.11966,7.61077,1.40429,15.57365,6.039,21.61166,7.14847,9.31215,20.59146,11.63176,32.08122,9.22275a51.51882,51.51882,0,0,0,34.51945-75.33893C677.41472,481.12683,678.27383,490.73194,674.87281,499.32131Z" transform="translate(-164.9347 -334.28836)" fill="#a076f1"/><path d="M317.99387,503.41643c-3.40068,8.58869-12.50927,15.67956-21.4951,13.53807-5.73147-1.36578-10.05435-6.01188-13.57985-10.73294a100.57648,100.57648,0,0,1-17.857-39.813A87.02082,87.02082,0,0,0,246.984,520.534c.11966,7.61078,1.40428,15.57366,6.039,21.61167,7.14847,9.31215,20.59146,11.63176,32.08121,9.22275a51.51884,51.51884,0,0,0,34.51946-75.33893C320.53578,485.222,321.39489,494.82705,317.99387,503.41643Z" transform="translate(-164.9347 -334.28836)" fill="#a076f1"/><path d="M248.82851,503.41643c-3.40068,8.58869-12.50926,15.67956-21.4951,13.53807-5.73146-1.36578-10.05435-6.01188-13.57984-10.73294a100.57664,100.57664,0,0,1-17.857-39.813A87.02081,87.02081,0,0,0,177.81866,520.534c.11965,7.61078,1.40428,15.57366,6.039,21.61167,7.14848,9.31215,20.59147,11.63176,32.08122,9.22275a51.51883,51.51883,0,0,0,34.51945-75.33893C251.37042,485.222,252.22953,494.82705,248.82851,503.41643Z" transform="translate(-164.9347 -334.28836)" fill="#a076f1"/><path d="M337.64064,401.83972c-2.11,9.43021-3.92464,26.24926-6.1544,38.19579-3.53118,20.49456-5.51554,32.63762-9.37821,51.29026-3.6859,17.20816-7.01,29.19212-13.07742,41.06815-3.97955,6.98063-2.42317,4.85839-7.49326,9.88189-5.5172,4.51463-2.59826,2.77129-8.79342,6.27668-.06322.03037-.12769.05657-.19091.08631-.05781.02142-.11438.04429-.17219.0653q-.72994.2664-1.47611.48392c-.57813.17511-1.15584.30924-1.6067.40261a18.34206,18.34206,0,0,1-3.5707.03453c-.95662-.21462-2.07087-.5615-2.72387-.76364a14.83029,14.83029,0,0,1-1.70985-1.00611c-.14225-.13622-.31735-.30508-.52906-.51138-4.45452-5.17615-3.97538-3.9028-7.69788-11.44139-.90838-2.04051-.29281-.65633.19881.53238-4.487-9.682-6.3973-24.66-6.94881-29.03261-1.3218-10.57939-2.30213-21.24987-2.74384-31.93595,1.06559-7.98009,1.95317-15.99449,2.46267-24.02886.11688-5.57606,1.25567-11.53144-.7212-16.874-2.31461-6.03856-10.646-7.31253-14.41378-1.88433-1.86749,2.17132-1.97647,5.15556-2.33042,7.86862-.3398,3.54449-.35145,7.10644-.37433,10.66382.06364,3.98.13767,8.3251.25247,12.91189q-.20338,2.18359-.40844,4.36676c-2.0455,19.13076-6.5803,44.59954-16.47966,61.30255-6.91512,11.98812-16.93884,16.62046-21.62171,16.11677-9.19853-1.4786-12.55378-6.96794-20.2317-20.19634-10.82312-19.81744-15.17616-44.08025-17.3348-67.787-.75614-12.94807-2.2805-26.54248,1.57177-39.122-3.297,5.4282-4.54312,11.80242-5.85868,17.93831a189.78134,189.78134,0,0,0-3.03914,29.122c-.94747,29.92892,3.893,62.83293,24.92621,85.60508,17.72535,17.4157,40.29827,7.73865,52.89489-10.38932A101.35349,101.35349,0,0,0,253.11321,520.818c2.91811,17.5831,11.14671,41.013,29.446,44.33937,10.42384,2.24432,20.66217-2.60908,28.30141-9.47055,8.42492-6.22635,13.16851-15.70355,17.13932-25.13209,4.12844-9.28837,6.41061-19.23951,8.02189-29.24036C340.94348,468.4118,341.06576,434.89887,337.64064,401.83972Z" transform="translate(-164.9347 -334.28836)"/><path d="M420.1184,550.92678c-9.59782,1.09014-18.15458.987-24.67333-.54922-13.62644-2.87735-24.94409-9.46535-27.17967-12.491-10.6422-15.75929-11.69032-28.21678-9.27673-42.64782,2.632-14.17275,4.13177-18.00069,12.466-30.14146,2.87651-3.34879,8.68611-9.1586,14.4849-9.00554,7.27988.04284,19.67644,3.32322,24.1605,9.31624,2.50926,5.23957,7.01078,12.65942-5.72767,23.90241-7.61262,5.55672-17.9383,6.96441-26.95632,9.81223,12.69935-1.29581,27.30071-.58666,36.7829-10.62847,9.421-8.24732,10.319-21.01114,4.22494-31.54769-3.02833-4.75732-7.8601-7.89587-12.75134-10.49538-10.99407-5.58833-24.72283-8.27934-35.78843-1.44325-23.765,15.239-35.81173,56.59327-25.434,82.598,4.68993,11.86521,12.24183,23.95752,24.99982,28.066a71.71463,71.71463,0,0,0,50.92051.02163,94.70324,94.70324,0,0,0,17.623-8.28974A108.48411,108.48411,0,0,1,420.1184,550.92678Z" transform="translate(-164.9347 -334.28836)"/><path d="M510.41009,555.74815c-8.32218.28013-17.59849-1.98207-23.53994-7.06215a74.72728,74.72728,0,0,1-20.36479-24.4063c11.52021-13.77035,19.54418-28.81425,26.29293-49.79315,5.66153-18.0138,9.95218-36.645,11.17042-55.52415.11771-11.59611-.27534-23.44157-3.29535-34.69247-5.04888-14.11557-14.19459-22.5983-29.41983-15.4748-24.01285,10.30364-32.6266,44.14951-33.92926,73.806-1.20576,29.32666,2.50884,61.64568,18.72647,86.77486-4.89457,6.86417-9.86567,12.79272-15.45109,20.07947a242.36484,242.36484,0,0,0,17.94829-16.394q1.75747,2.45373,3.6884,4.80223c7.77524,8.58172,17.53361,15.86951,28.62625,19.46141,6.6768,1.93737,13.85478.99988,20.47751-.721,1.244-.35166,2.46766-.76634,3.68174-1.20659A44.44777,44.44777,0,0,1,510.41009,555.74815Zm-39.74468-171.0336c6.51-4.32226,6.70883-3.71918,8.865-4.268a14.23682,14.23682,0,0,1,1.526-.03306c.287.06093.56982.13.85056.21461l.06281.03952c.10356.10023.23167.22792.36185.35852a44.16811,44.16811,0,0,1,2.76422,4.61632c.4912,1.1571.69334.92751,1.83089,5.65113a136.67008,136.67008,0,0,1,.68669,40.44468c-.97742,5.69023-5.83165,34.74592-9.57911,47.79964-3.9263,15.11086-7.71452,25.79861-14.59761,38.14525-3.72417-9.07459-6.16979-19.25012-8.5027-31.13176C449.21631,459.2351,448.17609,400.66932,470.66541,384.71455Z" transform="translate(-164.9347 -334.28836)"/><path d="M529.08084,507.67505c-.10315.699-.12312.95932,0,0Z" transform="translate(-164.9347 -334.28836)"/><path d="M566.17984,552.07515c-8.71523-.05511-16.61027-1.43473-21.95029-3.72916-8.23942-4.95093-12.77047-10.31258-14.55769-20.22858-.24123-1.24465-1.83671-13.98455-.48122-21.31559-.04492.36331-.08111.6505-.1098.87323.06322-.42611.15638-1.013.26868-1.59153,1.69738-9.20727,4.97193-19.55,7.23705-24.15738q-.28387.67224-.56732,1.34406c2.73677-6.10928,5.07758-12.47351,8.90323-18.01484a56.26269,56.26269,0,0,1,9.26341-9.59615c4.78269-3.87931,10.59936-6.1413,15.99387-9.01116-21.29687,3.63828-32.49142,11.44888-43.34948,30.11213a82.28019,82.28019,0,0,0-12.18069,31.66457c-1.11592,6.74875-.13642,13.58235.96494,20.2658,1.80344,12.4995,10.81106,23.22072,22.48183,27.8202,11.80429,4.034,24.94035,1.0057,36.27132-3.28163,1.378-.57148,2.74509-1.1729,4.091-1.81446A83.17846,83.17846,0,0,1,566.17984,552.07515Z" transform="translate(-164.9347 -334.28836)"/><path d="M688.90472,490.29429c-3.14645-9.92162-10.91089-18.12464-20.10443-22.80293-9.65729-4.22577-20.46128-4.74692-30.85934-5.15619-.42341-.05157-2.18567-.074-1.13006.079a117.47445,117.47445,0,0,1,17.346,5.55006,58.00441,58.00441,0,0,1,10.344,5.60518,33.63632,33.63632,0,0,1,6.854,7.46642c9.4589,13.09157,5.77965,27.57688-4.90664,43.74232-3.76492,4.39068-21.52022,17.52009-29.38739,16.16044-14.8663-.15264-33.80531-19.086-31.69991-42.95913-.24831-3.72812,3.21923-13.91488,5.18821-17.80126,2.99921-6.4418,5.88072-11.63251,11.11718-16.08475a27.9161,27.9161,0,0,1,13.48627-6.37962c4.00533-.61785,8.09426-.224,12.13245-.35686-24.46745-7.45145-39.0634,6.12674-49.98385,26.69679-12.62282,23.851-3.27913,56.24577,20.4043,69.36208,21.21411,12.39406,43.02381,1.30454,58.98566-14.16984C687.91233,526.86361,693.49234,506.51317,688.90472,490.29429Z" transform="translate(-164.9347 -334.28836)"/><path d="M858.97359,473.29015c-4.7099-16.58407-19.82409-34.14617-38.17707-24.11267-10.01707,6.71984-14.289,18.32761-17.8102,29.51175a46.21612,46.21612,0,0,0-8.506-15.88365c-3.8764-5.31153-9.39776-10.1304-16.23427-10.5326-7.21251.03015-14.68413,3.00088-19.2755,8.69152-5.14662,6.26545-7.70953,14.12784-11.00321,21.43392-2.04052,4.83468-4.05691,9.708-5.72933,14.686a246.5018,246.5018,0,0,0-12.493-33.30163c4.90455,20.9082,6.42891,40.67156,6.965,61.96074-.43506,4.15444-.7445,8.32157-.82935,12.50366.1098,5.27514-.59477,12.27594,4.58263,15.40784a8.02861,8.02861,0,0,0,10.85806-2.84741c1.24236-2.17007,1.23363-4.63025.96868-7.08045.03286-4.40648.893-8.80569,1.3713-13.19117,1.32845-7.76652,2.617-15.54946,4.41-23.22426a124.132,124.132,0,0,1,5.80918-16.64354,143.33052,143.33052,0,0,1,7.87674-16.8673c.24248-.38785.51657-.75407.77819-1.12923.40386-.44213.82311-.846,1.12839-1.1311.32442-.1986.643-.375.91337-.51637a14.60149,14.60149,0,0,1,2.04758-.59144c.15764.14682.32941.27763.48039.43131,3.50123,4.22452,3.49624,3.36876,7.15844,10.64054.01871.04908.02953.07611.04949.1281,4.54395,13.88514,5.84,30.42283,6.84608,37.9009.29406,3.87847.66631,7.76693.92959,11.65871-.47041,4.66873-.75158,8.98309-.83476,12.76673-.35686,11.17,12.15033,15.991,18.29475,6.17956,2.92185-6.02775,1.546-13.03271,1.37337-19.48948-.13684-2.34206-.33107-4.67871-.53279-7.01474a196.93312,196.93312,0,0,1,8.55843-39.49034c3.48043-10.71374,4.7831-13.787,8.88867-18.38771a16.64609,16.64609,0,0,1,1.3638-1.37025c.38432-.25538.77778-.492,1.18413-.71082.08194-.02266.16221-.04991.245-.07029.45169-.0185,1.03149-.03077,1.60172-.00831.40885.08776.92543.21149,1.43951.36767a17.52946,17.52946,0,0,1,1.88329,1.11613c10.97868,7.17091,19.96176,42.0545,26.51171,74.45691.61514,3.05537,1.1808,6.12134,1.62833,9.206.49869-4.84965.78692-9.71968.97118-14.59179C865.17707,513.77351,864.74534,492.9853,858.97359,473.29015Z" transform="translate(-164.9347 -334.28836)"/><path d="M970.42615,557.50563a53.86317,53.86317,0,0,1-12.54338,1.368c-29.73219-.04825-52.88241-18.07868-58.31352-36.40233-2.75507-10.13145-2.40944-9.42563-2.98008-16.98085.047-8.0065-.18051-3.2286,1.17331-11.48735,2.894-15.27849,7.69914-25.01189,13.03-30.678a60.38357,60.38357,0,0,1,9.11452-8.73728c.42507-.31859.846-.64364,1.281-.94871,6.43473-4.11181,4.19915-2.70558,8.67239-4.32289a51.52637,51.52637,0,0,1,6.01631-1.51666l.03244-.0025a19.80885,19.80885,0,0,1,3.57236.0574c.96993.23021,2.01431.55193,2.69434.76571a15.96663,15.96663,0,0,1,1.719,1.00737c4.12969,4.46534,2.29339,1.62958,4.7648,6.25754,2.7272,7.96616.00749,19.57787-4.59552,28.89245-5.62369,11.26275-21.42082,14.205-36.54832,6.849,15.78133,12.73449,37.17844,13.17017,48.33014-5.56878,5.63408-9.14114,9.765-19.8632,8.69236-30.75536a29.73431,29.73431,0,0,0-14.49156-22.49244c-8.81755-4.78373-19.3071-3.77554-28.45864-.48934-10.3943,3.94294-19.17775,11.58718-26.12489,20.13292-7.56646,8.72022-11.82716,19.60261-14.62549,30.68008a116.43667,116.43667,0,0,0-3.09945,18.10945c.05449,15.298,4.77978,30.99139,15.1483,42.48478,18.78429,20.71271,51.6883,26.59031,76.78878,14.58867C970.914,557.6406,973.22364,556.70457,970.42615,557.50563Z" transform="translate(-164.9347 -334.28836)"/><path d="M1009.25206,536.21541c-8.98225.22252-8.959,13.38188,0,13.62894C1018.23473,549.62183,1018.211,536.46247,1009.25206,536.21541Z" transform="translate(-164.9347 -334.28836)"/><path d="M1033.66253,418.61719a101.84976,101.84976,0,0,0-8.50561-28.32554c-4.7465-11.50087-12.78752-22.41238-24.06026-28.12964-18.8238-8.02647-28.13713,9.7176-29.63029,25.94147-1.24277,10.37435,1.18455,20.73351,3.15935,30.86787,6.48713,30.52556,21.341,58.28565,31.41251,87.6433-1.58425,4.02114-3.11526,8.06265-4.336,12.20981,8.46651-13.15187,17.78317-25.82876,24.8892-39.80624C1036.58979,461.338,1035.93138,430.50923,1033.66253,418.61719Zm-24.86965,81.02453c-.9092,2.32542-1.83837,4.64585-2.75423,6.97127-3.97871-28.0972-16.3811-67.98122-18.86332-89.69734-.98157-8.25834-2.37075-16.5512-1.83421-24.89252.02786-4.425,2.67022-14.24429,5.09338-16.76395l.04034-.03057c.282-.19194.57273-.37141.87177-.53529.26869-.08381.5224-.15285.73951-.20609.22211-.0106.443-.01518.66506-.0106,1.73232.33752,1.43868.20713,4.18751,2.04072,10.56067,9.42978,11.45116,15.10566,16.66558,28.75415,5.647,19.45267,6.45594,28.94859,7.09729,49.01059C1021.60744,469.2923,1015.40563,483.07554,1008.79288,499.64172Z" transform="translate(-164.9347 -334.28836)"/><path d="M602.185,416.36414c-8.98225.22252-8.959,13.38188,0,13.62893C611.16763,429.77056,611.14434,416.6112,602.185,416.36414Z" transform="translate(-164.9347 -334.28836)"/><path d="M654.18729,418.09749c-8.98226.22273-8.959,13.38188,0,13.62894C663.17,431.5037,663.14666,418.34434,654.18729,418.09749Z" transform="translate(-164.9347 -334.28836)"/><path d="M670.87075,354.80767c-2.74966-3.50539-4.70782-7.49533-7.05861-11.24237a22.90772,22.90772,0,0,0-17.16926-9.25926,26.98589,26.98589,0,0,0-21.87667,9.98629c-3.72916,4.31581-4.21579,5.43069-6.65351,6.71215-.43173.14017-1.01984.319-1.56345.4388-.22626.01393-.50909.02308-.81313.01788-.37724-.089-.888-.2196-1.35882-.37765l-.022-.01c-8.43365-4.32621-18.99475-9.11555-28.1234-4.06356-8.61084,5.565-9.29378,18.15563-7.01411,27.23729,2.48139,8.146,8.46775,14.48719,13.43386,21.19684-3.4717-7.68874-8.52432-15.10712-9.08249-23.7375A28.45242,28.45242,0,0,1,587.1028,357.089c1.67284-2.05486,3.83438-3.08718,5.38952-2.88254,3.35774.26223,6.02338.85243,10.62348,3.74725,4.301,2.6829,8.64119,6.118,13.98871,5.88176,9.40857.04471,13.75-6.6795,19.22475-13.05559.44212-.491,1.24235-1.19577,1.6824-1.58217.08485-.05906.16554-.12332.25122-.18051a14.34061,14.34061,0,0,1,1.934-1.09449c.22793-.08756.45253-.18447.68378-.26224,5.03931-1.18746,2.31585-1.0552,6.91055-.883.36809.068.78567.15514,1.15626.25663.443.116.91628.26952,1.28645.39408,6.23342,3.21945,4.85963,4.60031,12.12246,11.94695,6.76414,7.404,13.69507,12.95285,17.27366,20.80713,1.77224,4.739,1.67825,9.74671,1.1571,14.92494-.48788,2.488.56191-.53862.9666-1.42994C688.54037,377.97744,679.46869,367.19175,670.87075,354.80767Z" transform="translate(-164.9347 -334.28836)"/><path d="M654.01177,444.03335c-9.39111,1.9486-16.94134,2.20314-27.82561,3.2442,5.58667.94331,11.34386,1.807,16.98377.82456a36.3565,36.3565,0,0,0,11.15336-3.99243C655.05032,443.70228,654.414,443.962,654.01177,444.03335Z" transform="translate(-164.9347 -334.28836)"/></svg>
