<svg width="155" height="142" viewBox="0 0 155 142" fill="none" xmlns="http://www.w3.org/2000/svg">
<path d="M32.5 95.4C31.5851 95.4 30.4968 95.3711 29.5 95.3353C27.8792 95.2771 26.5 95.2006 26.5 95.2006C26.5 95.2006 24.3294 95.2156 22.5 95.2006C20.9926 95.1883 18.3774 95.6075 17.5 95.9C15.6429 96.519 15 96.7288 13.5 97.4C11.5 98.2949 9.71306 99.3443 8 101.4C5.5 104.4 5.17529 104.898 3.95784 107.4C2.47855 110.439 1.8826 113.823 1.99999 117.9C2.35772 130.324 12.6861 138.209 25 139.9C38.472 141.75 54.5 121.4 54.5 121.4C54.5 121.4 65.3594 108.753 69.3916 103.4C69.3916 103.4 79.1408 89.6474 82.9572 84.4C87.7644 77.79 93.0393 70.4 93.0393 70.4C93.0393 70.4 96.6439 64.5986 105 52.9C108.726 47.6835 112.457 42.3088 112.457 42.3088C112.457 42.3088 115.721 37.4114 118.598 33.015L119 32.4C120.667 29.3994 131.957 11.9 131.957 11.9C133.356 10.3459 137.274 3.0231 138.371 1C129.4 11.4698 122.855 20.3724 112.457 32.4C109.09 36.2947 108.146 37.2169 103.761 42.3088C101.936 44.4281 98.3961 48.743 94.9998 52.9C90.2469 58.7174 82.9572 67.9 82.9572 67.9C82.9572 67.9 79.4998 72.4 72.4998 80.9C67.1469 87.4 63.9572 90.9 63.9572 90.9L52.9998 103.4C52.9998 103.4 46.5762 110.193 45.4373 111.4C43.6061 113.341 43.6653 113.235 37.4998 119.4C35.9998 120.9 31.7375 124.212 30.4998 124.9C22.4998 127.9 17.0107 121.9 15.4572 119.9C13.9037 117.9 14.7679 114.647 15.4572 111.4C16.8369 104.9 23.0427 101.4 32.5 95.4Z" fill="black"/>
<path d="M119 32.4C120.667 29.3994 131.957 11.9 131.957 11.9C133.356 10.3459 137.274 3.0231 138.371 1C129.4 11.4698 122.855 20.3724 112.457 32.4C109.09 36.2947 108.146 37.2169 103.761 42.3088C101.936 44.4281 98.3961 48.743 94.9998 52.9C90.2469 58.7174 82.9572 67.9 82.9572 67.9C82.9572 67.9 79.4998 72.4 72.4998 80.9C67.1469 87.4 63.9572 90.9 63.9572 90.9L52.9998 103.4C52.9998 103.4 46.5762 110.193 45.4373 111.4C43.6061 113.341 43.6653 113.235 37.4998 119.4C35.9998 120.9 31.7375 124.212 30.4998 124.9C22.4998 127.9 17.0107 121.9 15.4572 119.9C13.9037 117.9 14.7679 114.647 15.4572 111.4C16.8369 104.9 23.0427 101.4 32.5 95.4C31.5851 95.4 30.4968 95.3711 29.5 95.3353C27.8792 95.2771 26.5 95.2006 26.5 95.2006C26.5 95.2006 24.3294 95.2156 22.5 95.2006C20.9926 95.1883 18.3774 95.6075 17.5 95.9C15.6429 96.519 15 96.7288 13.5 97.4C11.5 98.2949 9.71306 99.3443 8 101.4C5.5 104.4 5.17529 104.898 3.95784 107.4C2.47855 110.439 1.8826 113.823 1.99999 117.9C2.35772 130.324 12.6861 138.209 25 139.9C38.472 141.75 54.5 121.4 54.5 121.4C54.5 121.4 65.3594 108.753 69.3916 103.4C69.3916 103.4 79.1408 89.6474 82.9572 84.4C87.7644 77.79 93.0393 70.4 93.0393 70.4C93.0393 70.4 96.6439 64.5986 105 52.9C108.726 47.6835 112.457 42.3088 112.457 42.3088C112.457 42.3088 115.721 37.4114 118.598 33.015M119 32.4L118.598 33.015M119 32.4C118.863 32.6091 118.729 32.814 118.598 33.015" stroke="black" stroke-width="2" stroke-linecap="round"/>
<path d="M70 133.926C71.969 136.388 77.694 137.759 83 138.516C88.4729 139.298 93.5 139.426 93.5 139.426C93.5 139.426 106.776 140.439 115.5 138.516C124.224 136.593 127.637 135.426 130.568 133.926C133.5 132.426 136.62 129.895 138.892 127.926C141.574 125.602 144 122.426 145.691 119.926C147.496 117.029 149.894 111.926 151.179 108.926C152.037 106.926 153 103.926 152.845 99.9264C152.69 95.9264 151 92.4264 148.5 88.9264C146 85.4264 142.5 81.9264 139.5 79.9264C136.5 77.9264 129 74.4264 129 74.4264C129 74.4264 136.516 71.8779 139.001 70.4972C143.501 67.9972 142.881 68.4972 145.691 65.4972C148.501 62.4972 150.354 60.4663 152.001 56.9972C153.612 53.6031 153.445 51.9504 153.5 48C153.563 43.5178 152.845 42.4264 151.179 39.2042C149.514 35.982 148.07 33.0274 145.691 30.3647C143.668 28.0995 141.33 26.0354 138.892 24.1618C136.144 22.0504 133.268 20.1808 130.568 18.5375C127.041 16.3906 123.323 15.2468 119.5 14.5366C115.064 13.7127 110.487 13.4723 105.902 12.9264C101.08 12.3524 96.0616 12.0327 91 12C87.3366 11.9764 83.6505 12.1031 80 12.3927C73.9876 12.8696 68.0717 13.7882 62.5127 15.2042C57.9366 16.3698 53.5118 17.6735 49.1794 19.1574C45.842 20.3004 42.5595 21.5504 39.3049 22.9264C35.3491 24.599 31.4344 26.4578 27.5127 28.5375C23.818 30.4969 21.5 32.6949 21.5 32.6949C21.5 32.6949 24.5 33.0514 28 33.9264C32 34.9264 35 35.9113 35 35.9113L44.5 39.8334C44.5 39.8334 47.0815 40.9354 50 42.4264C51.9842 43.4401 54.7335 45.0665 57 46.4264C59.5 47.9264 62.5 49.4264 62.5 49.4264C62.5 49.4264 61 47.102 59.5 45.4264C58.5 44.3093 57 42.9264 54.5 40.4264C52 37.9264 54 39.8334 49.1794 35.4264C44.3588 31.0194 44.6163 31.8544 47.0683 30.7598C49.839 29.5228 52.839 28.3986 55.9312 27.4495C57.8728 26.8535 59.8506 26.3266 61.8308 25.8842C65.2581 25.1184 69.9666 23.9312 73.5 23.4264C77 22.9264 78.2055 23.0057 81.5 22.9264C86 22.8182 89.9753 23.2323 94 23.4641C98.0247 23.6958 101.5 23.7854 107.957 24.4264C110.985 24.727 116.5 25.3052 119.5 26.7164C122.5 28.1275 123.623 29.0918 125.457 30.9264C127.394 32.8629 129.9 35.3033 132 37.9054C133.659 39.9603 135.064 42.1162 135.735 44.2042C136.989 48.106 136.077 51.9607 134.013 55.5267C132.472 58.1874 130.291 60.6875 127.889 62.9264C124.005 66.547 116.29 71.3153 116.29 71.3153L110 74.9264C110 74.9264 113.712 77.5976 116 79.4264C121.387 83.7327 120.414 82.9264 128.957 91.4264C137.5 99.9264 136 103.926 129.5 112.926C125.948 117.844 124.946 118.846 121 121.926C115.124 125.926 110.803 128.426 105.902 129.926C101 131.426 99 131.641 93.5 132.426C91 132.784 88.25 133.176 83 133.926C78 134.426 71.9548 134.317 70 133.926Z" fill="black"/>
<path d="M83 133.926C78 134.426 71.9548 134.317 70 133.926C71.969 136.388 77.694 137.759 83 138.516C88.4729 139.298 93.5 139.426 93.5 139.426C93.5 139.426 106.776 140.439 115.5 138.516C124.224 136.593 127.637 135.426 130.568 133.926C133.5 132.426 136.62 129.895 138.892 127.926C141.574 125.602 144 122.426 145.691 119.926C147.496 117.029 149.894 111.926 151.179 108.926C152.037 106.926 153 103.926 152.845 99.9264C152.69 95.9264 151 92.4264 148.5 88.9264C146 85.4264 142.5 81.9264 139.5 79.9264C136.5 77.9264 129 74.4264 129 74.4264C129 74.4264 136.516 71.8779 139.001 70.4972C143.501 67.9972 142.881 68.4972 145.691 65.4972C148.501 62.4972 150.354 60.4663 152.001 56.9972C153.612 53.6031 153.445 51.9504 153.5 48C153.563 43.5178 152.845 42.4264 151.179 39.2042C149.514 35.982 148.07 33.0274 145.691 30.3647C143.668 28.0995 141.33 26.0354 138.892 24.1618C136.144 22.0504 133.268 20.1808 130.568 18.5375C127.041 16.3906 123.323 15.2468 119.5 14.5366C115.064 13.7127 110.487 13.4723 105.902 12.9264C101.08 12.3524 96.0616 12.0327 91 12C87.3366 11.9764 83.6505 12.1031 80 12.3927C73.9876 12.8696 68.0717 13.7882 62.5127 15.2042C57.9366 16.3698 53.5118 17.6735 49.1794 19.1574C45.842 20.3004 42.5595 21.5504 39.3049 22.9264C35.3491 24.599 31.4344 26.4578 27.5127 28.5375C23.818 30.4969 21.5 32.6949 21.5 32.6949C21.5 32.6949 24.5 33.0514 28 33.9264C32 34.9264 35 35.9113 35 35.9113L44.5 39.8334C44.5 39.8334 47.0815 40.9354 50 42.4264C51.9842 43.4401 54.7335 45.0665 57 46.4264C59.5 47.9264 62.5 49.4264 62.5 49.4264C62.5 49.4264 61 47.102 59.5 45.4264C58.5 44.3093 57 42.9264 54.5 40.4264C52 37.9264 54 39.8334 49.1794 35.4264C44.3588 31.0194 44.6163 31.8544 47.0683 30.7598C49.839 29.5228 52.839 28.3986 55.9312 27.4495C57.8728 26.8535 59.8506 26.3266 61.8308 25.8842C65.2581 25.1184 69.9666 23.9312 73.5 23.4264C77 22.9264 78.2055 23.0057 81.5 22.9264C86 22.8182 89.9753 23.2323 94 23.4641C98.0247 23.6958 101.5 23.7854 107.957 24.4264C110.985 24.727 116.5 25.3052 119.5 26.7164C122.5 28.1275 123.623 29.0918 125.457 30.9264C127.394 32.8629 129.9 35.3033 132 37.9054C133.659 39.9603 135.064 42.1162 135.735 44.2042C136.989 48.106 136.077 51.9607 134.013 55.5267C132.472 58.1874 130.291 60.6875 127.889 62.9264C124.005 66.547 116.29 71.3153 116.29 71.3153L110 74.9264C110 74.9264 113.712 77.5976 116 79.4264C121.387 83.7327 120.414 82.9264 128.957 91.4264C137.5 99.9264 136 103.926 129.5 112.926C125.948 117.844 124.946 118.846 121 121.926C115.124 125.926 110.803 128.426 105.902 129.926C101 131.426 99 131.641 93.5 132.426M83 133.926C88.25 133.176 91 132.784 93.5 132.426M83 133.926L93.5 132.426" stroke="black" stroke-width="2" stroke-linecap="round"/>
</svg>
